<?xml version="1.0" standalone="no"?>
<!DOCTYPE svg PUBLIC "-//W3C//DTD SVG 20010904//EN"
 "http://www.w3.org/TR/2001/REC-SVG-20010904/DTD/svg10.dtd">
<svg version="1.0" xmlns="http://www.w3.org/2000/svg"
 width="260.000000pt" height="260.000000pt" viewBox="0 0 260.000000 260.000000"
 preserveAspectRatio="xMidYMid meet">
<metadata>
Created by potrace 1.11, written by Peter Selinger 2001-2013
</metadata>
<g transform="translate(0.000000,260.000000) scale(0.100000,-0.100000)"
fill="#000000" stroke="none">
<path d="M0 1300 l0 -1300 1300 0 1300 0 0 1300 0 1300 -1300 0 -1300 0 0
-1300z m1063 555 c48 -16 87 -34 87 -40 0 -5 -14 -46 -32 -90 -18 -44 -33 -81
-33 -82 0 -1 -39 11 -85 27 -93 32 -197 40 -245 18 -56 -25 -72 -107 -31 -155
14 -16 88 -62 167 -103 214 -111 270 -179 269 -324 -1 -145 -84 -248 -233
-291 -89 -26 -298 -17 -392 16 l-70 24 -3 109 c-2 101 -1 108 15 101 98 -40
189 -67 251 -75 125 -16 193 13 207 90 11 63 -21 95 -183 180 -218 114 -272
180 -272 336 0 66 4 89 26 132 42 84 131 145 235 160 90 13 226 -1 322 -33z
m828 25 c158 -30 248 -122 249 -256 0 -101 -56 -185 -166 -250 -16 -10 -13
-13 28 -38 62 -36 142 -123 158 -171 33 -95 6 -209 -65 -280 -138 -138 -483
-135 -610 6 -99 110 -77 313 45 407 26 20 56 42 66 49 17 10 14 15 -37 62 -89
80 -124 184 -95 282 41 143 230 226 427 189z"/>
<path d="M1742 1709 c-45 -13 -75 -62 -68 -114 4 -32 14 -49 51 -82 51 -46 70
-51 114 -28 49 25 81 72 81 119 0 88 -77 134 -178 105z"/>
<path d="M1727 1229 c-55 -36 -74 -60 -87 -110 -14 -52 6 -107 50 -137 31 -21
44 -23 118 -20 82 3 84 4 118 40 40 45 45 94 14 146 -19 31 -131 112 -155 112
-6 0 -33 -14 -58 -31z"/>
</g>
</svg>
